<?xml version="1.0" encoding="utf-8"?>
<!-- Generator: Adobe Illustrator 18.1.0, SVG Export Plug-In . SVG Version: 6.00 Build 0)  -->
<!DOCTYPE svg PUBLIC "-//W3C//DTD SVG 1.1//EN" "http://www.w3.org/Graphics/SVG/1.1/DTD/svg11.dtd">
<svg version="1.1" id="Layer_1" xmlns="http://www.w3.org/2000/svg" xmlns:xlink="http://www.w3.org/1999/xlink" x="0px" y="0px"
	 viewBox="0 0 100 100" enable-background="new 0 0 100 100" xml:space="preserve">
<path fill="#8A00AD" d="M98.2,50.8C98.2,77.5,76.5,99,50,99S1.5,77.5,1.5,50.8S23.2,2.5,49.8,2.5S98.2,24.2,98.2,50.8z M80.2,68.8
	c0-0.5-0.3-0.8-0.3-1.2V33.2c0-0.5,0.3-0.8,0.3-1L60,49.5L80.2,68.8z M50,53.5l5.2-4.3L58,47l20.2-17c-0.2,0-0.7,0-1,0H22.8
	c-0.5,0-0.8,0-1,0l20,17.3l2.8,2.2L50,53.5z M77,72.5c0.2,0,0.8-0.8,1-0.8L57.7,52L50,58l-7.8-6.5L22,71.5c0,0.2,0.5,1,0.8,1H77z
	 M19.8,32.2c-0.2,0.2,0.2,0.5,0.2,1v34.2c0,0.5-0.5,0.8-0.2,1.2L40,49.5L19.8,32.2z"/>
</svg>
