<?xml version="1.0" encoding="utf-8"?>
<!-- Generator: Adobe Illustrator 18.1.0, SVG Export Plug-In . SVG Version: 6.00 Build 0)  -->
<!DOCTYPE svg PUBLIC "-//W3C//DTD SVG 1.1//EN" "http://www.w3.org/Graphics/SVG/1.1/DTD/svg11.dtd">
<svg version="1.1" id="Layer_1" xmlns="http://www.w3.org/2000/svg" xmlns:xlink="http://www.w3.org/1999/xlink" x="0px" y="0px"
	 viewBox="0 0 100 100" enable-background="new 0 0 100 100" xml:space="preserve">
<g>
	<g>
		<path fill="#8A00AD" d="M49.8,2.5C23.2,2.5,1.5,24.2,1.5,50.8C1.5,77.5,23.2,99,49.8,99s48.5-21.5,48.5-48.2
			C98.2,24.2,76.5,2.5,49.8,2.5z M67.5,27.5h-6.8c-5,0-5.8,3-5.8,6.5v8.5h12L65.5,55H55v30H42.5V55H30V42.5h12.5V33
			c0-10.5,6.2-16.5,15.8-16.5c4.5,0,6.8,0.2,9.2,0.5V27.5z"/>
	</g>
</g>
</svg>
