<?xml version="1.0" encoding="utf-8"?>
<!-- Generator: Adobe Illustrator 18.1.0, SVG Export Plug-In . SVG Version: 6.00 Build 0)  -->
<!DOCTYPE svg PUBLIC "-//W3C//DTD SVG 1.1//EN" "http://www.w3.org/Graphics/SVG/1.1/DTD/svg11.dtd">
<svg version="1.1" id="Layer_1" xmlns="http://www.w3.org/2000/svg" xmlns:xlink="http://www.w3.org/1999/xlink" x="0px" y="0px"
	 viewBox="0 0 100 100" enable-background="new 0 0 100 100" xml:space="preserve">
<path fill="#8A00AD" d="M98.2,50.8C98.2,77.5,76.5,99,50,99S1.5,77.5,1.5,50.8S23.2,2.5,49.8,2.5S98.2,24.2,98.2,50.8z M38.5,75
	c22.2,0,34-18.5,34-34.5c0-0.5,0-1,0-1.5c2.5-1.8,5-3.8,6.5-6.2c-2.2,1-4.2,1.8-6.8,2c2.5-1.5,4.5-3.7,5.5-6.7c-2.2,1.2-5,2.5-7.8,3
	c-2.2-2.2-5.5-3.8-8.8-3.8c-6.8,0-12.2,5.5-12.2,12.3c0,1,0,1.8,0.2,2.8c-10-0.7-19-5.5-24.7-12.8c-1,1.7-1.8,3.8-1.8,6
	c0,4.2,2,8,5.2,10.3c-2,0-3-0.5-5.5-1.5c0,0,0,0,0,0.3c0,6,4.2,10.8,9.8,12c-1,0.2-2,0.5-3.2,0.5c-0.8,0-1.5,0-2.2-0.2
	c1.5,4.8,6,8.2,11.2,8.5c-4.2,3.2-9.5,5.2-15,5.2c-1,0-2.2,0-3-0.2C25.5,72.8,31.8,75,38.5,75"/>
</svg>
